<?xml version="1.0" standalone="no"?>
<!DOCTYPE svg PUBLIC "-//W3C//DTD SVG 20010904//EN"
 "http://www.w3.org/TR/2001/REC-SVG-20010904/DTD/svg10.dtd">
<svg version="1.0" xmlns="http://www.w3.org/2000/svg"
 width="81.000000pt" height="81.000000pt" viewBox="0 0 81.000000 81.000000"
 preserveAspectRatio="xMidYMid meet">
<metadata>
Created by potrace 1.14, written by Peter Selinger 2001-2017
</metadata>
<g transform="translate(0.000000,81.000000) scale(0.100000,-0.100000)"
fill="#000000" stroke="none">
<path d="M87 612 c-15 -16 -17 -46 -17 -209 0 -171 2 -192 18 -206 16 -15 46
-17 209 -17 171 0 192 2 206 18 24 27 25 376 1 410 -15 21 -20 22 -208 22
-174 0 -195 -2 -209 -18z"/>
<path d="M630 549 c-30 -22 -59 -46 -65 -53 -8 -11 -10 -74 -6 -168 1 -20 124
-108 151 -108 10 0 22 6 26 12 11 18 13 319 2 341 -13 27 -48 19 -108 -24z"/>
</g>
</svg>
